<svg xmlns="http://www.w3.org/2000/svg" viewBox="0 0 109.625 17.281">
  <path id="ТЕХНОМАРТ" fill="#fff" fill-rule="evenodd" d="M191.421,30.347V15.227h3.84v-1.68h-9.84v1.68h3.84v15.12h2.16Zm14.035,0v-1.68h-6v-6.24h5.28v-1.68h-5.28v-5.52h6v-1.68H197.3v16.8h8.16Zm3.917,0,3-7.2,3,7.2h2.16l-3.6-8.64,3.24-8.16h-2.16l-2.64,6.72-2.64-6.72h-2.16l3.24,8.16-3.6,8.64h2.16Zm12.415,0v-7.68h5.04v7.68h2.16v-16.8h-2.16v7.44h-5.04v-7.44h-2.16v16.8h2.16Zm15,0.24a4.864,4.864,0,0,0,2.832-.78,4.925,4.925,0,0,0,1.728-2.688,17.844,17.844,0,0,0,.6-5.172,17.845,17.845,0,0,0-.6-5.172,4.926,4.926,0,0,0-1.728-2.688,5.531,5.531,0,0,0-5.664,0,4.926,4.926,0,0,0-1.728,2.688,17.845,17.845,0,0,0-.6,5.172,17.844,17.844,0,0,0,.6,5.172,4.925,4.925,0,0,0,1.728,2.688,4.864,4.864,0,0,0,2.832.78h0Zm0-1.44q-3,0-3-7.2t3-7.2q3,0,3,7.2t-3,7.2h0Zm9.511,1.2,0.72-12.48h0.12l3.48,10.32h2.16l3.48-10.32h0.12l0.72,12.48h2.16l-0.96-16.8h-2.64l-3.912,11.52h-0.1l-3.912-11.52H245.1l-0.96,16.8h2.16Zm17.109,0,1.08-4.32h4.8l1.08,4.32h2.16l-4.08-16.8h-3.12l-4.08,16.8h2.16Zm3.432-14.4h0.1l1.992,8.4h-4.08Zm7.829,14.4h2.16v-5.16q0.48,0.1,1.176.168a12.07,12.07,0,0,0,1.224.072,5.257,5.257,0,0,0,2.6-.564,3.382,3.382,0,0,0,1.476-1.9,11.154,11.154,0,0,0,.48-3.66,10.036,10.036,0,0,0-.516-3.6,3.321,3.321,0,0,0-1.656-1.848,7.234,7.234,0,0,0-3.108-.552,13.527,13.527,0,0,0-3.84.48v16.56Zm2.16-6.6v-8.88h1.68a3.532,3.532,0,0,1,1.8.4,2.37,2.37,0,0,1,1,1.356,8.758,8.758,0,0,1,.324,2.688,8.756,8.756,0,0,1-.324,2.688,2.369,2.369,0,0,1-1,1.356,3.532,3.532,0,0,1-1.8.4h-1.68Zm14.373,6.6V15.227h3.84v-1.68H285.2v1.68h3.84v15.12h2.16Z" transform="translate(-185.406 -13.313)"/>
</svg>
